<?xml version="1.0" standalone="no"?>
<!DOCTYPE svg PUBLIC "-//W3C//DTD SVG 20010904//EN"
 "http://www.w3.org/TR/2001/REC-SVG-20010904/DTD/svg10.dtd">
<svg version="1.0" xmlns="http://www.w3.org/2000/svg"
 width="310.000000pt" height="310.000000pt" viewBox="0 0 310.000000 310.000000"
 preserveAspectRatio="xMidYMid meet">
<metadata>
Created by potrace 1.11, written by Peter Selinger 2001-2013
</metadata>
<g transform="translate(0.000000,310.000000) scale(0.100000,-0.100000)"
fill="#000000" stroke="none">
<path d="M1898 3095 c-3 -4 -39 -11 -80 -16 -201 -28 -442 -123 -633 -252
-123 -84 -323 -285 -404 -407 -185 -278 -264 -539 -264 -870 0 -331 79 -592
264 -870 81 -122 281 -323 404 -407 188 -127 413 -217 635 -254 87 -15 380
-17 460 -3 l55 9 0 70 0 70 -40 -2 c-22 -2 -123 -4 -225 -5 -208 -2 -279 8
-460 68 -193 65 -360 166 -513 313 -123 118 -210 234 -281 373 -205 401 -205
875 0 1276 71 139 158 255 281 373 153 147 320 248 513 313 181 60 252 70 460
68 102 -1 203 -3 225 -5 l40 -2 0 70 0 70 -50 8 c-63 11 -378 20 -387 12z"/>
<path d="M1943 2659 c-483 -43 -894 -427 -984 -919 -15 -84 -15 -297 0 -380
93 -500 500 -876 995 -919 111 -10 295 1 354 20 l32 11 0 69 c0 80 6 77 -113
54 -140 -27 -331 -14 -466 31 -197 66 -380 200 -489 356 -106 155 -151 268
-179 453 -16 109 -16 121 0 230 28 185 73 298 180 453 107 155 293 291 488
356 135 45 326 58 466 31 119 -23 113 -26 113 54 l0 69 -32 11 c-28 9 -252 34
-268 30 -3 -1 -46 -5 -97 -10z"/>
<path d="M1881 2210 c-151 -43 -303 -152 -388 -279 -23 -34 -56 -101 -74 -149
-32 -84 -33 -93 -33 -232 0 -138 1 -149 31 -228 107 -279 352 -452 642 -452
101 0 239 30 267 57 11 11 14 46 14 158 0 79 -3 150 -6 159 -9 22 -100 21
-145 -1 -25 -13 -59 -18 -124 -18 -82 0 -96 3 -158 33 -55 27 -77 46 -112 93
-55 75 -69 116 -69 205 1 158 106 283 268 319 68 15 74 15 146 -6 100 -28 180
-35 191 -18 5 8 9 83 9 166 l0 152 -28 15 c-93 48 -309 61 -431 26z"/>
</g>
</svg>
